<?xml version="1.0" encoding="utf-8"?>
<!-- Generator: Adobe Illustrator 19.2.1, SVG Export Plug-In . SVG Version: 6.00 Build 0)  -->
<svg version="1.1" id="Layer_1" xmlns="http://www.w3.org/2000/svg" xmlns:xlink="http://www.w3.org/1999/xlink" x="0px" y="0px"
	 viewBox="0 0 350 400" style="enable-background:new 0 0 350 400;" xml:space="preserve">
<style type="text/css">
	.st0{fill:#181819;}
</style>
<path class="st0" d="M225.7,135.6c0.2-1.1,0.4-2.2,0.6-3.4c3.4-24.3-5.5-45.7-19.9-47.7c-12.3-1.7-24.6,11.2-30.1,30.1
	c-0.3,0-0.6,0-0.9,0c-9.5,0-18.6,2-27.1,5.6c-0.5-19-8.6-34-20.6-35.7c-14.4-2-28.8,16.1-32.3,40.4c-2.4,16.8,1.2,32.2,8.3,40.8
	C96.9,180.4,93,197.4,93,215.6c0,55.8,36.9,101,82.4,101c45.5,0,82.4-45.2,82.4-101C257.9,183,245.3,154,225.7,135.6z"/>
</svg>
