<?xml version="1.0" encoding="utf-8"?>
<!-- Generator: Adobe Illustrator 19.2.1, SVG Export Plug-In . SVG Version: 6.00 Build 0)  -->
<svg version="1.1" id="Layer_1" xmlns="http://www.w3.org/2000/svg" xmlns:xlink="http://www.w3.org/1999/xlink" x="0px" y="0px"
	 viewBox="0 0 500 675" style="enable-background:new 0 0 500 675;" xml:space="preserve">
<style type="text/css">
	.st0{fill:#333333;}
</style>
<path class="st0" d="M328.7,93.7c-70.2,0-127.8,51.4-133.1,116.7c-2.2,1.2-4.5,2.4-6.7,3.7c-35.6,20.5-61.4,48.8-72.5,75.9
	c-26,18.2-47.4,57.3-54,104.7c-3.6,25.8-2.4,50.4,2.7,71.5c-11.8,3.5-22.3,19.5-25.2,39.8c-3.4,24.3,5.5,45.7,19.9,47.7
	c13.7,1.9,27.4-14.3,31.7-36.9c8,7.6,17.3,12.6,27.6,14c4.1,0.6,8.2,0.6,12.3,0c-3.2,24.1,5.6,45.3,19.9,47.3
	c14.4,2,28.8-16.1,32.3-40.4c2.1-14.8-0.4-28.5-5.9-37.4c16.3-20.8,28.7-50.6,33.5-84.7c2.5-17.5,2.7-34.5,1-50.2
	c17-4.2,34.7-11.3,51.9-21.2c4.3-2.5,8.4-5,12.3-7.7c16.1,6.5,33.7,10.1,52.3,10.1c73.7,0,133.4-56.6,133.4-126.5
	S402.4,93.7,328.7,93.7z"/>
</svg>
