<?xml version="1.0" encoding="utf-8"?>
<!-- Generator: Adobe Illustrator 19.2.1, SVG Export Plug-In . SVG Version: 6.00 Build 0)  -->
<svg version="1.1" id="Layer_1" xmlns="http://www.w3.org/2000/svg" xmlns:xlink="http://www.w3.org/1999/xlink" x="0px" y="0px"
	 viewBox="0 0 425 400" style="enable-background:new 0 0 425 400;" xml:space="preserve">
<style type="text/css">
	.st0{fill:#111111;}
</style>
<path class="st0" d="M371.1,282.7c-6.7-1.5-13.2-1.9-19-1.4c-14.7-21-46.2-39.2-84.9-46.5c-16-3-31.5-3.9-45.7-2.8
	c0.2-12.8-1.1-26.6-4.1-40.6c-5-23.4-14-44.1-25.1-59.9c2-7.1,3.1-14.5,3.1-22.1c0-46.5-39.8-84.2-88.9-84.2
	c-49.1,0-88.9,37.7-88.9,84.2c0,43.7,35.1,79.6,80,83.8c0.7,7.6,1.8,15.3,3.5,23.2c9.6,45,33.9,79.8,59.4,89.4
	c14.8,20.7,46.2,38.7,84.6,46c23.2,4.4,45.5,4.2,64.2,0.3c5.3,7.6,16,14.2,29.1,17.2c20.7,4.8,39.9-1.3,42.7-13.6
	c2.5-11-8.9-23.3-26.4-29.2c0.2-0.3,0.4-0.5,0.5-0.8c1.8,0.6,3.7,1.1,5.6,1.6c20.7,4.8,39.9-1.3,42.7-13.6
	C406.4,301.3,391.9,287.5,371.1,282.7z"/>
</svg>
