<?xml version="1.0" encoding="utf-8"?>
<!-- Generator: Adobe Illustrator 19.2.1, SVG Export Plug-In . SVG Version: 6.00 Build 0)  -->
<svg version="1.1" id="Layer_1" xmlns="http://www.w3.org/2000/svg" xmlns:xlink="http://www.w3.org/1999/xlink" x="0px" y="0px"
	 viewBox="0 0 275 450" style="enable-background:new 0 0 275 450;" xml:space="preserve">
<style type="text/css">
	.st0{fill:#303031;}
</style>
<path class="st0" d="M168.9,65.4c-28.9-4.1-58.2,34.7-65.5,86.5c-3.2,23.1-1.6,44.9,3.8,62.3c-10.5,9.2-20.1,21.7-27.4,36.6
	c-15.1,30.7-16.3,62.7-4.9,81.9c-0.1,1.4-0.1,2.7-0.1,4.1c0,28.1,15,50.8,33.4,50.8c18.4,0,33.4-22.7,33.4-50.8c0-0.8,0-1.5,0-2.3
	c11.4-9.4,21.9-22.6,29.8-38.7c11.1-22.5,14.7-45.8,11.3-64.2c12.2-15.7,21.6-38.7,25.4-65.2C215.3,114.8,197.8,69.5,168.9,65.4z"/>
</svg>
