<?xml version="1.0" encoding="utf-8"?>
<!-- Generator: Adobe Illustrator 19.2.1, SVG Export Plug-In . SVG Version: 6.00 Build 0)  -->
<svg version="1.1" id="Layer_1" xmlns="http://www.w3.org/2000/svg" xmlns:xlink="http://www.w3.org/1999/xlink" x="0px" y="0px"
	 viewBox="0 0 425 400" style="enable-background:new 0 0 425 400;" xml:space="preserve">
<style type="text/css">
	.st0{fill:#111111;}
</style>
<polygon class="st0" points="358.8,345.7 391.2,328.7 380.6,308.5 340.7,329.5 306.4,327.7 306.8,320.8 351.8,323.1 352.2,315.8 
	383.8,299.2 373.2,278.9 333.3,299.9 307.9,298.6 308.6,284.8 346,286.7 346.4,279.8 380.8,261.7 370.1,241.5 330.2,262.5 
	309.8,261.4 310.5,248.2 266.6,245.9 266.8,242.6 294.5,228.1 283.8,207.9 243.9,228.8 204.3,226.8 203.5,242.7 171.1,241.1 
	171.1,170.4 158.8,170.4 169.2,156.3 150.4,142.3 169.2,116.9 160.9,110.7 187.2,75.1 141.4,41.1 134.8,50 99.6,24 62,74.8 
	105.5,107 89.7,128.5 81.3,122.3 43.6,173.1 63.3,187.7 33.2,228.3 71.4,256.6 71.4,309.3 96.1,309.3 93.3,364.3 304,375 305,355.5 
	358.1,358.2 "/>
</svg>
