<?xml version="1.0" encoding="utf-8"?>
<!-- Generator: Adobe Illustrator 19.2.1, SVG Export Plug-In . SVG Version: 6.00 Build 0)  -->
<svg version="1.1" id="Layer_1" xmlns="http://www.w3.org/2000/svg" xmlns:xlink="http://www.w3.org/1999/xlink" x="0px" y="0px"
	 viewBox="0 0 500 675" style="enable-background:new 0 0 500 675;" xml:space="preserve">
<style type="text/css">
	.st0{fill:#333333;}
</style>
<polygon class="st0" points="486.7,534.9 424.1,373.3 440.1,367.1 422.6,321.8 459.2,307.6 448,278.8 470.1,270.3 445.2,205.9 
	470.1,196.3 435.7,107.4 388.6,125.6 375.6,91.9 354.6,100.1 346.7,79.7 273.1,108.2 264.3,85.4 170.1,121.9 178.9,144.7 
	114.9,169.5 134.9,221.3 106.8,232.2 120.7,267.9 35.5,338.8 52.4,359.1 24.4,481.1 13.3,529 15.6,529.5 30.3,572.8 57.6,563.5 
	44.1,523.8 52.5,487.5 68.5,491.2 57.4,539.1 60.7,539.9 75.9,584.5 103.2,575.2 88.6,532.3 96.6,497.7 96,497.6 119,502.9 
	108,550.8 114.1,552.2 128.4,594.4 155.7,585.1 140.2,539.4 147.1,509.3 166.1,513.7 172.9,484.4 182.7,486.7 176.1,515.1 
	204.2,521.6 215.3,473.7 199.4,470 207.7,434.1 185.6,429.1 192.7,398.1 221.8,374 230.4,396.3 263.7,383.4 273.1,407.7 
	337.7,382.7 345.8,403.6 375.2,392.2 437.8,553.8 "/>
</svg>
