<?xml version="1.0" encoding="utf-8"?>
<!-- Generator: Adobe Illustrator 19.2.1, SVG Export Plug-In . SVG Version: 6.00 Build 0)  -->
<svg version="1.1" id="Layer_1" xmlns="http://www.w3.org/2000/svg" xmlns:xlink="http://www.w3.org/1999/xlink" x="0px" y="0px"
	 viewBox="0 0 500 500" style="enable-background:new 0 0 500 500;" xml:space="preserve">
<path d="M189.8,218.1v63.8h120.5v-63.8H189.8z M221.3,243.1c-3.2,0-4.8,3.5-4.8,1c0-2.5,1.6-5,4.8-5c3.2,0,4.8,2.5,4.8,5
	C226.2,246.6,224.6,243.1,221.3,243.1z M283,243.3c0,3.2-2.5-0.7-5-0.7c-2.5,0-5,3.8-5,0.6c0-3.2,2.6-4.8,5.1-4.8
	C280.6,238.5,283.1,240.1,283,243.3z"/>
</svg>
