<?xml version="1.0" encoding="utf-8"?>
<!-- Generator: Adobe Illustrator 19.2.1, SVG Export Plug-In . SVG Version: 6.00 Build 0)  -->
<svg version="1.1" id="Layer_1" xmlns="http://www.w3.org/2000/svg" xmlns:xlink="http://www.w3.org/1999/xlink" x="0px" y="0px"
	 viewBox="0 0 1000 600" style="enable-background:new 0 0 1000 600;" xml:space="preserve">
<style type="text/css">
	.st0{fill:#999999;}
	.st1{fill:#CDCCCC;}
</style>
<polygon class="st0" points="386,251.4 597.4,617.6 174.6,617.6 "/>
<polygon class="st0" points="135,370 346.4,621 -76.4,621 "/>
<polygon class="st0" points="955,350 1166.4,601 743.6,601 "/>
<polygon class="st0" points="516.4,354.8 727.8,721 305,721 "/>
<polygon class="st0" points="680.4,153 891.8,600 469,600 "/>
<polygon class="st0" points="839.4,196 1050.8,643 628,643 "/>
<polygon class="st1" points="135,370 55.3,464.7 102,441 135,464.7 171.4,444.2 214.7,464.7 "/>
<polygon class="st1" points="680.4,153 625.6,269 658.3,240 680.4,269 704.8,243.9 735.3,269 "/>
<polygon class="st1" points="839.4,196 802.8,273.5 824.7,254.1 839.4,273.5 855.7,256.7 876.1,273.5 "/>
<polygon class="st1" points="955,350 875.3,444.7 922,421 955,444.7 991.4,424.2 1034.7,444.7 "/>
<polygon class="st1" points="516.4,354.8 458.6,455 492.9,429.9 516.4,455 542.4,433.3 574.3,455 "/>
<polygon class="st1" points="386,248.8 330.8,347 362.9,322.4 386,347 411.4,325.7 441.9,348.2 "/>
</svg>
