<?xml version="1.0" encoding="utf-8"?>
<!-- Generator: Adobe Illustrator 19.2.1, SVG Export Plug-In . SVG Version: 6.00 Build 0)  -->
<svg version="1.1" id="Layer_1" xmlns="http://www.w3.org/2000/svg" xmlns:xlink="http://www.w3.org/1999/xlink" x="0px" y="0px"
	 viewBox="0 0 425 500" style="enable-background:new 0 0 425 500;" xml:space="preserve">
<style type="text/css">
	.st0{fill:none;}
	.st1{fill:#212122;}
</style>
<g>
	<polygon class="st0" points="254.5,356 254.8,357.3 255.9,354.7 	"/>
	<path class="st1" d="M374.8,144.6l21.5-28.2l-44.7-22l-13-23.3l-6.4,7.1l-8.9-16l-8.2,9.2l-8.3-15l-12.1,13.5L274.2,60l-13-23.3
		l-6.4,7.1l-8.9-16l-8.2,9.2l-8.3-15l-18.6,20.7l-3.8-5.7l-5.9,7.6l-10.1-15.3l-7.5,9.7l-9.4-14.3L60.2,171.9l31-17.3L79,174.1
		l-1.9,2.4l0.6-0.3l-17.3,27.6l-1.5,1.2l1-0.3l-30.4,48.6l31.4-21.7l-16.6,26.6l33.6-23.2l-8.3,13.3L28.3,289l41.2-16.1L53.2,289
		l21.9-8.5l-30.5,30.1l20.7-8.1l-16.2,16l22.3-8.7l-22.3,22l31.5-12.3l-20.8,23.2l37.4-17.5l-20.9,23.3l26.6-12.5l1,6.7l-47.9,32.9
		l48.3-11.5l-19.7,13.6l23.7-5.6l0.1,0.8L73.5,397l24.3-5.8l-19.7,13.5l26.1-6.2l-27,18.6l36.7-8.7l5.4,35.6l10.1-39.4l0.3-0.1
		l4.6,30.3l8.6-33.5l3.7-0.9l1.1,7l-5.3,60.3l21.9-44.6l-2.1,23.8l11.6-23.7l-4,44.7l11-22.5l-2.1,23.8l11.8-24.1l-2.9,32.7
		l48.4-98.7l10.1-2.4l-8.4,19.4l142.6-125.6l-15.4-12.1l9.4-8.3l-16.5-12.9l7.3-6.5l-0.5-0.4l13-3.1l-2.8-11.5l3.7-0.9l-5.9-24
		l12.5-3L374.8,144.6z M254.5,356l1.4-1.3l-1.1,2.6L254.5,356z"/>
</g>
</svg>
