<?xml version="1.0" encoding="utf-8"?>
<!-- Generator: Adobe Illustrator 19.2.1, SVG Export Plug-In . SVG Version: 6.00 Build 0)  -->
<svg version="1.1" id="Layer_1" xmlns="http://www.w3.org/2000/svg" xmlns:xlink="http://www.w3.org/1999/xlink" x="0px" y="0px"
	 viewBox="0 0 500 675" style="enable-background:new 0 0 500 675;" xml:space="preserve">
<style type="text/css">
	.st0{fill:#333333;}
</style>
<g>
	<polygon class="st0" points="446,289.3 481.2,239 417.2,193.8 339.2,74.6 356.7,173.1 313.4,167.4 217.6,20.9 244.4,171.7 
		224.2,190.1 156.2,86.2 181.6,229 87.8,314.8 68.4,291.1 61.8,338.5 18.6,378 55.9,380.5 23.7,611.5 216.6,472.3 185.7,434.5 
		188.3,389.3 255.9,393.8 256,381.3 277.4,392 295.1,473.6 349.8,373.6 387.1,421 390.5,347.1 447.4,381.3 428.6,323.8 464.3,345.3 
			"/>
	<polygon class="st0" points="63,595.9 137.9,585.2 177.3,517.9 	"/>
	<polygon class="st0" points="167.4,568.9 187.2,603 181.3,533.3 	"/>
	<polygon class="st0" points="72.2,603 134.6,634.6 111.6,604 	"/>
</g>
</svg>
