<?xml version="1.0" encoding="utf-8"?>
<!-- Generator: Adobe Illustrator 19.2.1, SVG Export Plug-In . SVG Version: 6.00 Build 0)  -->
<svg version="1.1" id="Layer_1" xmlns="http://www.w3.org/2000/svg" xmlns:xlink="http://www.w3.org/1999/xlink" x="0px" y="0px"
	 viewBox="0 0 200 200" style="enable-background:new 0 0 200 200;" xml:space="preserve">
<path d="M66.4,26.2C50,25.3,38.5,41.5,37.7,42.7c-9.1,13.2-3.4,24-3,41.4c1,41.6-29.9,56.2-18.6,71.9c11.4,15.8,55.2,18.4,70.2,4.2
	c12.2-11.5-5-24.2,0.7-61.2c3.9-25.1,14-33.9,6.7-50.3C92.9,46.9,83.9,27.2,66.4,26.2z"/>
<path d="M134.5,26.2c16.3-0.9,27.8,15.2,28.7,16.5c9.1,13.2,3.4,24,3,41.4c-1,41.6,29.9,56.2,18.6,71.9
	c-11.4,15.8-55.2,18.4-70.2,4.2c-12.2-11.5,5-24.2-0.7-61.2c-3.9-25.1-14-33.9-6.7-50.3C107.9,46.9,117,27.2,134.5,26.2z"/>
</svg>
